# len_center  (local coords; bottom=gold toward O, bulge=dark, other=grey)
mtllib len_center.mtl
o len_center
v 2.580754209e-01 -1.489999137e-01 -5.000000000e-02
v 1.455191523e-11 -2.979998275e-01 -5.000000000e-02
v -2.580754209e-01 -1.489999137e-01 -5.000000000e-02
v 2.492590719e-01 -1.439097923e-01 0.000000000e+00
v -2.492590719e-01 -1.439097923e-01 0.000000000e+00
v 1.455191523e-11 -2.878195845e-01 0.000000000e+00
v -2.580754209e-01 1.489999137e-01 -5.000000000e-02
v -2.492590719e-01 1.439097923e-01 0.000000000e+00
v -1.110223025e-16 2.979998275e-01 -5.000000000e-02
v -1.665334537e-16 2.878195845e-01 0.000000000e+00
v 2.580754209e-01 1.489999137e-01 -5.000000000e-02
v 2.492590719e-01 1.439097923e-01 0.000000000e+00
v 8.526883480e-02 -2.476899542e-01 -4.469615506e-02
v 8.179587124e-02 -2.416746048e-01 -5.303844940e-03
v 1.718713752e-01 -1.976899542e-01 -4.469615506e-02
v 1.160235579e-11 -2.878195845e-01 -1.040167952e-12
v 1.683984116e-01 -1.916746048e-01 -5.303844940e-03
v 9.265489294e-02 -2.604829821e-01 -4.209143240e-02
v 1.792574333e-01 -2.104829821e-01 -4.209143240e-02
v 1.757844698e-01 -2.044676328e-01 -2.699122275e-03
v 8.918192939e-02 -2.544676328e-01 -2.699122275e-03
v 1.718713752e-01 1.976899542e-01 -4.469615506e-02
v 1.683984116e-01 1.916746048e-01 -5.303844940e-03
v 8.526883479e-02 2.476899542e-01 -4.469615506e-02
v 8.179587123e-02 2.416746048e-01 -5.303844940e-03
v 1.792574333e-01 2.104829821e-01 -4.209143240e-02
v 9.265489294e-02 2.604829821e-01 -4.209143240e-02
v 8.918192938e-02 2.544676328e-01 -2.699122275e-03
v 1.757844698e-01 2.044676328e-01 -2.699122275e-03
v 2.571402100e-01 -5.000000000e-02 -4.469615506e-02
v 2.501942828e-01 -5.000000000e-02 -5.303844940e-03
v 2.571402100e-01 5.000000000e-02 -4.469615506e-02
v 2.501942828e-01 5.000000000e-02 -5.303844940e-03
v 2.719123263e-01 -5.000000000e-02 -4.209143240e-02
v 2.719123263e-01 5.000000000e-02 -4.209143240e-02
v 2.649663991e-01 5.000000000e-02 -2.699122275e-03
v 2.649663991e-01 -5.000000000e-02 -2.699122275e-03
v -2.571402100e-01 5.000000000e-02 -4.469615506e-02
v -2.501942828e-01 5.000000000e-02 -5.303844940e-03
v -2.571402100e-01 -5.000000000e-02 -4.469615506e-02
v -2.501942828e-01 -5.000000000e-02 -5.303844940e-03
v -2.719123262e-01 5.000000000e-02 -4.209143240e-02
v -2.719123262e-01 -5.000000000e-02 -4.209143240e-02
v -2.649663991e-01 -5.000000000e-02 -2.699122275e-03
v -2.649663991e-01 5.000000000e-02 -2.699122275e-03
v -1.718713752e-01 -1.976899542e-01 -4.469615506e-02
v -1.683984116e-01 -1.916746048e-01 -5.303844940e-03
v -8.526883478e-02 -2.476899542e-01 -4.469615506e-02
v -8.179587122e-02 -2.416746048e-01 -5.303844940e-03
v -1.792574333e-01 -2.104829821e-01 -4.209143240e-02
v -9.265489293e-02 -2.604829821e-01 -4.209143240e-02
v -8.918192937e-02 -2.544676328e-01 -2.699122275e-03
v -1.757844698e-01 -2.044676328e-01 -2.699122275e-03
v -8.526883479e-02 2.476899542e-01 -4.469615506e-02
v -8.179587123e-02 2.416746048e-01 -5.303844940e-03
v -1.718713752e-01 1.976899542e-01 -4.469615506e-02
v -1.683984116e-01 1.916746048e-01 -5.303844940e-03
v -9.265489293e-02 2.604829821e-01 -4.209143240e-02
v -1.792574333e-01 2.104829821e-01 -4.209143240e-02
v -1.757844698e-01 2.044676328e-01 -2.699122275e-03
v -8.918192938e-02 2.544676328e-01 -2.699122275e-03
usemtl mat_bottom
f 4 5 6
f 4 8 5
f 4 10 8
f 4 12 10
usemtl mat_bulge
f 18 19 20
f 18 20 21
f 13 15 19
f 13 19 18
f 15 17 20
f 15 20 19
f 17 14 21
f 17 21 20
f 14 13 18
f 14 18 21
f 26 27 28
f 26 28 29
f 22 24 27
f 22 27 26
f 24 25 28
f 24 28 27
f 25 23 29
f 25 29 28
f 23 22 26
f 23 26 29
f 34 35 36
f 34 36 37
f 30 32 35
f 30 35 34
f 32 33 36
f 32 36 35
f 33 31 37
f 33 37 36
f 31 30 34
f 31 34 37
f 42 43 44
f 42 44 45
f 38 40 43
f 38 43 42
f 40 41 44
f 40 44 43
f 41 39 45
f 41 45 44
f 39 38 42
f 39 42 45
f 50 51 52
f 50 52 53
f 46 48 51
f 46 51 50
f 48 49 52
f 48 52 51
f 49 47 53
f 49 53 52
f 47 46 50
f 47 50 53
f 58 59 60
f 58 60 61
f 54 56 59
f 54 59 58
f 56 57 60
f 56 60 59
f 57 55 61
f 57 61 60
f 55 54 58
f 55 58 61
usemtl mat_other
f 1 2 3
f 1 3 7
f 1 7 9
f 1 9 11
f 2 13 14
f 15 13 2
f 16 2 14
f 15 2 1
f 4 16 14
f 17 15 1
f 4 14 17
f 17 1 4
f 11 22 23
f 24 22 11
f 12 11 23
f 24 11 9
f 10 12 23
f 25 24 9
f 10 23 25
f 25 9 10
f 1 30 31
f 32 30 1
f 4 1 31
f 32 1 11
f 12 4 31
f 33 32 11
f 12 31 33
f 33 11 12
f 7 38 39
f 40 38 7
f 8 7 39
f 40 7 3
f 5 8 39
f 41 40 3
f 5 39 41
f 41 3 5
f 3 46 47
f 48 46 3
f 5 3 47
f 48 3 2
f 16 5 47
f 49 48 2
f 16 47 49
f 49 2 16
f 9 54 55
f 56 54 9
f 10 9 55
f 56 9 7
f 8 10 55
f 57 56 7
f 8 55 57
f 57 7 8
