solid len_center
  facet normal 0.000000000e+00 0.000000000e+00 1.000000000e+00
    outer loop
      vertex 2.479211548e-01 1.431373455e-01 5.000000000e-02
      vertex 0.000000000e+00 2.862746909e-01 5.000000000e-02
      vertex -2.479211548e-01 1.431373455e-01 5.000000000e-02
    endloop
  endfacet
  facet normal -0.000000000e+00 0.000000000e+00 -1.000000000e+00
    outer loop
      vertex 2.391048058e-01 1.380472240e-01 0.000000000e+00
      vertex -2.391048058e-01 1.380472240e-01 0.000000000e+00
      vertex 0.000000000e+00 2.760944479e-01 0.000000000e+00
    endloop
  endfacet
  facet normal 0.000000000e+00 0.000000000e+00 1.000000000e+00
    outer loop
      vertex 2.479211548e-01 1.431373455e-01 5.000000000e-02
      vertex -2.479211548e-01 1.431373455e-01 5.000000000e-02
      vertex -2.479211548e-01 -1.431373455e-01 5.000000000e-02
    endloop
  endfacet
  facet normal 0.000000000e+00 0.000000000e+00 -1.000000000e+00
    outer loop
      vertex 2.391048058e-01 1.380472240e-01 0.000000000e+00
      vertex -2.391048058e-01 -1.380472240e-01 0.000000000e+00
      vertex -2.391048058e-01 1.380472240e-01 0.000000000e+00
    endloop
  endfacet
  facet normal 0.000000000e+00 0.000000000e+00 1.000000000e+00
    outer loop
      vertex 2.479211548e-01 1.431373455e-01 5.000000000e-02
      vertex -2.479211548e-01 -1.431373455e-01 5.000000000e-02
      vertex -2.775557562e-17 -2.862746909e-01 5.000000000e-02
    endloop
  endfacet
  facet normal 0.000000000e+00 0.000000000e+00 -1.000000000e+00
    outer loop
      vertex 2.391048058e-01 1.380472240e-01 0.000000000e+00
      vertex 2.775557562e-17 -2.760944479e-01 0.000000000e+00
      vertex -2.391048058e-01 -1.380472240e-01 0.000000000e+00
    endloop
  endfacet
  facet normal 0.000000000e+00 0.000000000e+00 1.000000000e+00
    outer loop
      vertex 2.479211548e-01 1.431373455e-01 5.000000000e-02
      vertex -2.775557562e-17 -2.862746909e-01 5.000000000e-02
      vertex 2.479211548e-01 -1.431373455e-01 5.000000000e-02
    endloop
  endfacet
  facet normal 0.000000000e+00 -0.000000000e+00 -1.000000000e+00
    outer loop
      vertex 2.391048058e-01 1.380472240e-01 0.000000000e+00
      vertex 2.391048058e-01 -1.380472240e-01 0.000000000e+00
      vertex 2.775557562e-17 -2.760944479e-01 0.000000000e+00
    endloop
  endfacet
  facet normal 4.924038765e-01 8.528685319e-01 -1.736481777e-01
    outer loop
      vertex 2.479211548e-01 1.431373455e-01 5.000000000e-02
      vertex 0.000000000e+00 2.760944479e-01 0.000000000e+00
      vertex 0.000000000e+00 2.862746909e-01 5.000000000e-02
    endloop
  endfacet
  facet normal 4.924038765e-01 8.528685320e-01 -1.736481776e-01
    outer loop
      vertex 2.479211548e-01 1.431373455e-01 5.000000000e-02
      vertex 2.391048058e-01 1.380472240e-01 0.000000000e+00
      vertex 0.000000000e+00 2.760944479e-01 0.000000000e+00
    endloop
  endfacet
  facet normal 4.924038765e-01 -8.528685319e-01 -1.736481777e-01
    outer loop
      vertex -2.775557562e-17 -2.862746909e-01 5.000000000e-02
      vertex 2.391048058e-01 -1.380472240e-01 0.000000000e+00
      vertex 2.479211548e-01 -1.431373455e-01 5.000000000e-02
    endloop
  endfacet
  facet normal 4.924038765e-01 -8.528685319e-01 -1.736481777e-01
    outer loop
      vertex -2.775557562e-17 -2.862746909e-01 5.000000000e-02
      vertex 2.775557562e-17 -2.760944479e-01 0.000000000e+00
      vertex 2.391048058e-01 -1.380472240e-01 0.000000000e+00
    endloop
  endfacet
  facet normal 9.848077530e-01 0.000000000e+00 -1.736481777e-01
    outer loop
      vertex 2.479211548e-01 -1.431373455e-01 5.000000000e-02
      vertex 2.391048058e-01 1.380472240e-01 0.000000000e+00
      vertex 2.479211548e-01 1.431373455e-01 5.000000000e-02
    endloop
  endfacet
  facet normal 9.848077530e-01 0.000000000e+00 -1.736481777e-01
    outer loop
      vertex 2.479211548e-01 -1.431373455e-01 5.000000000e-02
      vertex 2.391048058e-01 -1.380472240e-01 0.000000000e+00
      vertex 2.391048058e-01 1.380472240e-01 0.000000000e+00
    endloop
  endfacet
  facet normal -9.848077530e-01 2.864441767e-16 -1.736481775e-01
    outer loop
      vertex -2.479211548e-01 1.431373455e-01 5.000000000e-02
      vertex -2.391048058e-01 -1.380472240e-01 0.000000000e+00
      vertex -2.479211548e-01 -1.431373455e-01 5.000000000e-02
    endloop
  endfacet
  facet normal -9.848077530e-01 2.977794915e-16 -1.736481775e-01
    outer loop
      vertex -2.479211548e-01 1.431373455e-01 5.000000000e-02
      vertex -2.391048058e-01 1.380472240e-01 0.000000000e+00
      vertex -2.391048058e-01 -1.380472240e-01 0.000000000e+00
    endloop
  endfacet
  facet normal -4.924038765e-01 8.528685319e-01 -1.736481778e-01
    outer loop
      vertex 0.000000000e+00 2.862746909e-01 5.000000000e-02
      vertex -2.391048058e-01 1.380472240e-01 0.000000000e+00
      vertex -2.479211548e-01 1.431373455e-01 5.000000000e-02
    endloop
  endfacet
  facet normal -4.924038765e-01 8.528685319e-01 -1.736481777e-01
    outer loop
      vertex 0.000000000e+00 2.862746909e-01 5.000000000e-02
      vertex 0.000000000e+00 2.760944479e-01 0.000000000e+00
      vertex -2.391048058e-01 1.380472240e-01 0.000000000e+00
    endloop
  endfacet
  facet normal -4.924038765e-01 -8.528685320e-01 -1.736481777e-01
    outer loop
      vertex -2.479211548e-01 -1.431373455e-01 5.000000000e-02
      vertex 2.775557562e-17 -2.760944479e-01 0.000000000e+00
      vertex -2.775557562e-17 -2.862746909e-01 5.000000000e-02
    endloop
  endfacet
  facet normal -4.924038765e-01 -8.528685320e-01 -1.736481777e-01
    outer loop
      vertex -2.479211548e-01 -1.431373455e-01 5.000000000e-02
      vertex -2.391048058e-01 -1.380472240e-01 0.000000000e+00
      vertex 2.775557562e-17 -2.760944479e-01 0.000000000e+00
    endloop
  endfacet
endsolid len_center
