solid len_ring1
  facet normal 0.000000000e+00 0.000000000e+00 -1.000000000e+00
    outer loop
      vertex 2.944188694e-01 -1.044726559e-02 -5.000000000e-02
      vertex 1.365461170e-01 -2.580754209e-01 -5.000000000e-02
      vertex -1.365461170e-01 -2.580754209e-01 -5.000000000e-02
    endloop
  endfacet
  facet normal -2.442544284e-32 -1.232991708e-16 1.000000000e+00
    outer loop
      vertex 2.843518643e-01 -1.009017315e-02 3.104942826e-17
      vertex -1.318722229e-01 -2.492590719e-01 1.560101365e-18
      vertex 1.318722229e-01 -2.492590719e-01 1.560101365e-18
    endloop
  endfacet
  facet normal 8.248835651e-17 -1.435603855e-16 -1.000000000e+00
    outer loop
      vertex 2.944188694e-01 -1.044726559e-02 -5.000000000e-02
      vertex -1.365461170e-01 -2.580754209e-01 -5.000000000e-02
      vertex -2.944188694e-01 -1.044726558e-02 -5.000000000e-02
    endloop
  endfacet
  facet normal -5.391407526e-17 -2.947285442e-17 1.000000000e+00
    outer loop
      vertex 2.843518643e-01 -1.009017315e-02 3.104942826e-17
      vertex -2.843518643e-01 -1.009017315e-02 3.882926342e-19
      vertex -1.318722229e-01 -2.492590719e-01 1.560101365e-18
    endloop
  endfacet
  facet normal 8.248835651e-17 -4.475255551e-17 -1.000000000e+00
    outer loop
      vertex 2.944188694e-01 -1.044726559e-02 -5.000000000e-02
      vertex -2.944188694e-01 -1.044726558e-02 -5.000000000e-02
      vertex -1.487367763e-01 2.580754209e-01 -5.000000000e-02
    endloop
  endfacet
  facet normal -5.391407526e-17 -1.806386334e-16 1.000000000e+00
    outer loop
      vertex 2.843518643e-01 -1.009017315e-02 3.104942826e-17
      vertex -1.436466548e-01 2.492590719e-01 5.482277709e-17
      vertex -2.843518643e-01 -1.009017315e-02 3.882926342e-19
    endloop
  endfacet
  facet normal -3.857723749e-32 -1.808869781e-16 -1.000000000e+00
    outer loop
      vertex 2.944188694e-01 -1.044726559e-02 -5.000000000e-02
      vertex -1.487367763e-01 2.580754209e-01 -5.000000000e-02
      vertex 1.487367763e-01 2.580754209e-01 -5.000000000e-02
    endloop
  endfacet
  facet normal -2.067854475e-32 -9.166538666e-17 1.000000000e+00
    outer loop
      vertex 2.843518643e-01 -1.009017315e-02 3.104942826e-17
      vertex 1.436466548e-01 2.492590719e-01 5.482277709e-17
      vertex -1.436466548e-01 2.492590719e-01 5.482277709e-17
    endloop
  endfacet
  facet normal -8.660254038e-01 4.698463104e-01 1.710100717e-01
    outer loop
      vertex -1.487367763e-01 2.580754209e-01 -5.000000000e-02
      vertex -1.969512589e-01 1.672789239e-01 -4.470538561e-02
      vertex -1.909387273e-01 1.640169344e-01 -5.294614387e-03
    endloop
  endfacet
  facet normal -8.660254038e-01 4.698463104e-01 1.710100717e-01
    outer loop
      vertex -2.446383551e-01 7.938159262e-02 -4.470538561e-02
      vertex -1.969512589e-01 1.672789239e-01 -4.470538561e-02
      vertex -1.487367763e-01 2.580754209e-01 -5.000000000e-02
    endloop
  endfacet
  facet normal -8.660254038e-01 4.698463104e-01 1.710100717e-01
    outer loop
      vertex -1.436466548e-01 2.492590719e-01 6.669317876e-14
      vertex -1.487367763e-01 2.580754209e-01 -5.000000000e-02
      vertex -1.909387273e-01 1.640169344e-01 -5.294614387e-03
    endloop
  endfacet
  facet normal -8.660254038e-01 4.698463104e-01 1.710100717e-01
    outer loop
      vertex -2.446383551e-01 7.938159262e-02 -4.470538561e-02
      vertex -1.487367763e-01 2.580754209e-01 -5.000000000e-02
      vertex -2.944188694e-01 -1.044726558e-02 -5.000000000e-02
    endloop
  endfacet
  facet normal -8.660254038e-01 4.698463104e-01 1.710100717e-01
    outer loop
      vertex -2.843518643e-01 -1.009017315e-02 9.368547604e-14
      vertex -1.436466548e-01 2.492590719e-01 6.669317876e-14
      vertex -1.909387273e-01 1.640169344e-01 -5.294614387e-03
    endloop
  endfacet
  facet normal -8.660254038e-01 4.698463104e-01 1.710100717e-01
    outer loop
      vertex -2.386258236e-01 7.611960312e-02 -5.294614387e-03
      vertex -2.446383551e-01 7.938159262e-02 -4.470538561e-02
      vertex -2.944188694e-01 -1.044726558e-02 -5.000000000e-02
    endloop
  endfacet
  facet normal -8.660254038e-01 4.698463104e-01 1.710100717e-01
    outer loop
      vertex -2.843518643e-01 -1.009017315e-02 9.368547604e-14
      vertex -1.909387273e-01 1.640169344e-01 -5.294614387e-03
      vertex -2.386258236e-01 7.611960312e-02 -5.294614387e-03
    endloop
  endfacet
  facet normal -8.660254038e-01 4.698463104e-01 1.710100717e-01
    outer loop
      vertex -2.386258236e-01 7.611960312e-02 -5.294614387e-03
      vertex -2.944188694e-01 -1.044726558e-02 -5.000000000e-02
      vertex -2.843518643e-01 -1.009017315e-02 9.368547604e-14
    endloop
  endfacet
  facet normal -8.660254038e-01 4.698463104e-01 1.710100717e-01
    outer loop
      vertex -2.099416399e-01 1.743266186e-01 -4.214023454e-02
      vertex -2.576287362e-01 8.642928727e-02 -4.214023454e-02
      vertex -2.516162046e-01 8.316729777e-02 -2.729463312e-03
    endloop
  endfacet
  facet normal -8.660254038e-01 4.698463104e-01 1.710100717e-01
    outer loop
      vertex -2.099416399e-01 1.743266186e-01 -4.214023454e-02
      vertex -2.516162046e-01 8.316729777e-02 -2.729463312e-03
      vertex -2.039291084e-01 1.710646291e-01 -2.729463312e-03
    endloop
  endfacet
  facet normal -1.503132892e-01 8.154973751e-02 -9.852692806e-01
    outer loop
      vertex -1.969512589e-01 1.672789239e-01 -4.470538561e-02
      vertex -2.446383551e-01 7.938159262e-02 -4.470538561e-02
      vertex -2.576287362e-01 8.642928727e-02 -4.214023454e-02
    endloop
  endfacet
  facet normal -1.503132892e-01 8.154973751e-02 -9.852692806e-01
    outer loop
      vertex -1.969512589e-01 1.672789239e-01 -4.470538561e-02
      vertex -2.576287362e-01 8.642928727e-02 -4.214023454e-02
      vertex -2.099416399e-01 1.743266186e-01 -4.214023454e-02
    endloop
  endfacet
  facet normal -4.768709627e-01 -8.789733130e-01 -5.882926163e-14
    outer loop
      vertex -2.446383551e-01 7.938159262e-02 -4.470538561e-02
      vertex -2.386258236e-01 7.611960312e-02 -5.294614387e-03
      vertex -2.516162046e-01 8.316729777e-02 -2.729463312e-03
    endloop
  endfacet
  facet normal -4.768709627e-01 -8.789733130e-01 -5.882926163e-14
    outer loop
      vertex -2.446383551e-01 7.938159262e-02 -4.470538561e-02
      vertex -2.516162046e-01 8.316729777e-02 -2.729463312e-03
      vertex -2.576287362e-01 8.642928727e-02 -4.214023454e-02
    endloop
  endfacet
  facet normal 1.503132892e-01 -8.154973751e-02 9.852692806e-01
    outer loop
      vertex -2.386258236e-01 7.611960312e-02 -5.294614387e-03
      vertex -1.909387273e-01 1.640169344e-01 -5.294614387e-03
      vertex -2.039291084e-01 1.710646291e-01 -2.729463312e-03
    endloop
  endfacet
  facet normal 1.503132892e-01 -8.154973751e-02 9.852692806e-01
    outer loop
      vertex -2.386258236e-01 7.611960312e-02 -5.294614387e-03
      vertex -2.039291084e-01 1.710646291e-01 -2.729463312e-03
      vertex -2.516162046e-01 8.316729777e-02 -2.729463312e-03
    endloop
  endfacet
  facet normal 4.768709627e-01 8.789733130e-01 5.913419349e-14
    outer loop
      vertex -1.909387273e-01 1.640169344e-01 -5.294614387e-03
      vertex -1.969512589e-01 1.672789239e-01 -4.470538561e-02
      vertex -2.099416399e-01 1.743266186e-01 -4.214023454e-02
    endloop
  endfacet
  facet normal 4.768709627e-01 8.789733130e-01 5.913419349e-14
    outer loop
      vertex -1.909387273e-01 1.640169344e-01 -5.294614387e-03
      vertex -2.099416399e-01 1.743266186e-01 -4.214023454e-02
      vertex -2.039291084e-01 1.710646291e-01 -2.729463312e-03
    endloop
  endfacet
  facet normal 8.307846614e-01 -5.296581118e-01 1.710530063e-01
    outer loop
      vertex 1.365461170e-01 -2.580754209e-01 -5.000000000e-02
      vertex 1.878028939e-01 -1.759676834e-01 -4.470523655e-02
      vertex 1.820335355e-01 -1.722894890e-01 -5.294763447e-03
    endloop
  endfacet
  facet normal 8.307846614e-01 -5.296581118e-01 1.710530063e-01
    outer loop
      vertex 2.415610013e-01 -9.164647676e-02 -4.470523655e-02
      vertex 1.878028939e-01 -1.759676834e-01 -4.470523655e-02
      vertex 1.365461170e-01 -2.580754209e-01 -5.000000000e-02
    endloop
  endfacet
  facet normal 8.307846614e-01 -5.296581118e-01 1.710530063e-01
    outer loop
      vertex 1.318722229e-01 -2.492590719e-01 -2.218364381e-14
      vertex 1.365461170e-01 -2.580754209e-01 -5.000000000e-02
      vertex 1.820335355e-01 -1.722894890e-01 -5.294763447e-03
    endloop
  endfacet
  facet normal 8.307846614e-01 -5.296581118e-01 1.710530063e-01
    outer loop
      vertex 2.415610013e-01 -9.164647676e-02 -4.470523655e-02
      vertex 1.365461170e-01 -2.580754209e-01 -5.000000000e-02
      vertex 2.944188694e-01 -1.044726559e-02 -5.000000000e-02
    endloop
  endfacet
  facet normal 8.307846614e-01 -5.296581118e-01 1.710530063e-01
    outer loop
      vertex 2.843518643e-01 -1.009017315e-02 7.178285744e-15
      vertex 1.318722229e-01 -2.492590719e-01 -2.218364381e-14
      vertex 1.820335355e-01 -1.722894890e-01 -5.294763447e-03
    endloop
  endfacet
  facet normal 8.307846614e-01 -5.296581118e-01 1.710530063e-01
    outer loop
      vertex 2.357916429e-01 -8.796828240e-02 -5.294763447e-03
      vertex 2.415610013e-01 -9.164647676e-02 -4.470523655e-02
      vertex 2.944188694e-01 -1.044726559e-02 -5.000000000e-02
    endloop
  endfacet
  facet normal 8.307846614e-01 -5.296581118e-01 1.710530063e-01
    outer loop
      vertex 2.843518643e-01 -1.009017315e-02 7.178285744e-15
      vertex 1.820335355e-01 -1.722894890e-01 -5.294763447e-03
      vertex 2.357916429e-01 -8.796828240e-02 -5.294763447e-03
    endloop
  endfacet
  facet normal 8.307846614e-01 -5.296581118e-01 1.710530063e-01
    outer loop
      vertex 2.357916429e-01 -8.796828240e-02 -5.294763447e-03
      vertex 2.944188694e-01 -1.044726559e-02 -5.000000000e-02
      vertex 2.843518643e-01 -1.009017315e-02 7.178285744e-15
    endloop
  endfacet
  facet normal 8.307846614e-01 -5.296581118e-01 1.710530063e-01
    outer loop
      vertex 2.002646638e-01 -1.839125550e-01 -4.213944146e-02
      vertex 2.540227712e-01 -9.959134843e-02 -4.213944146e-02
      vertex 2.482534129e-01 -9.591315408e-02 -2.728968353e-03
    endloop
  endfacet
  facet normal 8.307846614e-01 -5.296581118e-01 1.710530063e-01
    outer loop
      vertex 2.002646638e-01 -1.839125550e-01 -4.213944146e-02
      vertex 2.482534129e-01 -9.591315408e-02 -2.728968353e-03
      vertex 1.944953054e-01 -1.802343607e-01 -2.728968353e-03
    endloop
  endfacet
  facet normal 1.442339588e-01 -9.195485887e-02 -9.852618277e-01
    outer loop
      vertex 1.878028939e-01 -1.759676834e-01 -4.470523655e-02
      vertex 2.415610013e-01 -9.164647676e-02 -4.470523655e-02
      vertex 2.540227712e-01 -9.959134843e-02 -4.213944146e-02
    endloop
  endfacet
  facet normal 1.442339588e-01 -9.195485887e-02 -9.852618277e-01
    outer loop
      vertex 1.878028939e-01 -1.759676834e-01 -4.470523655e-02
      vertex 2.540227712e-01 -9.959134843e-02 -4.213944146e-02
      vertex 2.002646638e-01 -1.839125550e-01 -4.213944146e-02
    endloop
  endfacet
  facet normal 5.375810743e-01 8.432120662e-01 -6.764405117e-14
    outer loop
      vertex 2.415610013e-01 -9.164647676e-02 -4.470523655e-02
      vertex 2.357916429e-01 -8.796828240e-02 -5.294763447e-03
      vertex 2.482534129e-01 -9.591315408e-02 -2.728968353e-03
    endloop
  endfacet
  facet normal 5.375810743e-01 8.432120662e-01 -6.763840428e-14
    outer loop
      vertex 2.415610013e-01 -9.164647676e-02 -4.470523655e-02
      vertex 2.482534129e-01 -9.591315408e-02 -2.728968353e-03
      vertex 2.540227712e-01 -9.959134843e-02 -4.213944146e-02
    endloop
  endfacet
  facet normal -1.442339588e-01 9.195485887e-02 9.852618277e-01
    outer loop
      vertex 2.357916429e-01 -8.796828240e-02 -5.294763447e-03
      vertex 1.820335355e-01 -1.722894890e-01 -5.294763447e-03
      vertex 1.944953054e-01 -1.802343607e-01 -2.728968353e-03
    endloop
  endfacet
  facet normal -1.442339588e-01 9.195485887e-02 9.852618277e-01
    outer loop
      vertex 2.357916429e-01 -8.796828240e-02 -5.294763447e-03
      vertex 1.944953054e-01 -1.802343607e-01 -2.728968353e-03
      vertex 2.482534129e-01 -9.591315408e-02 -2.728968353e-03
    endloop
  endfacet
  facet normal -5.375810743e-01 -8.432120662e-01 6.749158524e-14
    outer loop
      vertex 1.820335355e-01 -1.722894890e-01 -5.294763447e-03
      vertex 1.878028939e-01 -1.759676834e-01 -4.470523655e-02
      vertex 2.002646638e-01 -1.839125550e-01 -4.213944146e-02
    endloop
  endfacet
  facet normal -5.375810743e-01 -8.432120662e-01 6.753676033e-14
    outer loop
      vertex 1.820335355e-01 -1.722894890e-01 -5.294763447e-03
      vertex 2.002646638e-01 -1.839125550e-01 -4.213944146e-02
      vertex 1.944953054e-01 -1.802343607e-01 -2.728968353e-03
    endloop
  endfacet
  facet normal -8.307846614e-01 -5.296581118e-01 1.710530063e-01
    outer loop
      vertex -2.944188694e-01 -1.044726558e-02 -5.000000000e-02
      vertex -2.415610013e-01 -9.164647675e-02 -4.470523655e-02
      vertex -2.357916429e-01 -8.796828240e-02 -5.294763447e-03
    endloop
  endfacet
  facet normal -8.307846614e-01 -5.296581118e-01 1.710530063e-01
    outer loop
      vertex -1.878028939e-01 -1.759676834e-01 -4.470523655e-02
      vertex -2.415610013e-01 -9.164647675e-02 -4.470523655e-02
      vertex -2.944188694e-01 -1.044726558e-02 -5.000000000e-02
    endloop
  endfacet
  facet normal -8.307846614e-01 -5.296581118e-01 1.710530063e-01
    outer loop
      vertex -2.843518643e-01 -1.009017315e-02 -7.285838599e-17
      vertex -2.944188694e-01 -1.044726558e-02 -5.000000000e-02
      vertex -2.357916429e-01 -8.796828240e-02 -5.294763447e-03
    endloop
  endfacet
  facet normal -8.307846614e-01 -5.296581118e-01 1.710530063e-01
    outer loop
      vertex -1.878028939e-01 -1.759676834e-01 -4.470523655e-02
      vertex -2.944188694e-01 -1.044726558e-02 -5.000000000e-02
      vertex -1.365461170e-01 -2.580754209e-01 -5.000000000e-02
    endloop
  endfacet
  facet normal -8.307846614e-01 -5.296581118e-01 1.710530063e-01
    outer loop
      vertex -1.318722229e-01 -2.492590719e-01 0.000000000e+00
      vertex -2.843518643e-01 -1.009017315e-02 -7.285838599e-17
      vertex -2.357916429e-01 -8.796828240e-02 -5.294763447e-03
    endloop
  endfacet
  facet normal -8.307846614e-01 -5.296581118e-01 1.710530063e-01
    outer loop
      vertex -1.820335355e-01 -1.722894890e-01 -5.294763447e-03
      vertex -1.878028939e-01 -1.759676834e-01 -4.470523655e-02
      vertex -1.365461170e-01 -2.580754209e-01 -5.000000000e-02
    endloop
  endfacet
  facet normal -8.307846614e-01 -5.296581118e-01 1.710530063e-01
    outer loop
      vertex -1.318722229e-01 -2.492590719e-01 0.000000000e+00
      vertex -2.357916429e-01 -8.796828240e-02 -5.294763447e-03
      vertex -1.820335355e-01 -1.722894890e-01 -5.294763447e-03
    endloop
  endfacet
  facet normal -8.307846614e-01 -5.296581118e-01 1.710530063e-01
    outer loop
      vertex -1.820335355e-01 -1.722894890e-01 -5.294763447e-03
      vertex -1.365461170e-01 -2.580754209e-01 -5.000000000e-02
      vertex -1.318722229e-01 -2.492590719e-01 0.000000000e+00
    endloop
  endfacet
  facet normal -8.307846614e-01 -5.296581118e-01 1.710530063e-01
    outer loop
      vertex -2.540227712e-01 -9.959134843e-02 -4.213944146e-02
      vertex -2.002646638e-01 -1.839125550e-01 -4.213944146e-02
      vertex -1.944953054e-01 -1.802343607e-01 -2.728968353e-03
    endloop
  endfacet
  facet normal -8.307846614e-01 -5.296581118e-01 1.710530063e-01
    outer loop
      vertex -2.540227712e-01 -9.959134843e-02 -4.213944146e-02
      vertex -1.944953054e-01 -1.802343607e-01 -2.728968353e-03
      vertex -2.482534129e-01 -9.591315407e-02 -2.728968353e-03
    endloop
  endfacet
  facet normal -1.442339588e-01 -9.195485887e-02 -9.852618277e-01
    outer loop
      vertex -2.415610013e-01 -9.164647675e-02 -4.470523655e-02
      vertex -1.878028939e-01 -1.759676834e-01 -4.470523655e-02
      vertex -2.002646638e-01 -1.839125550e-01 -4.213944146e-02
    endloop
  endfacet
  facet normal -1.442339588e-01 -9.195485887e-02 -9.852618277e-01
    outer loop
      vertex -2.415610013e-01 -9.164647675e-02 -4.470523655e-02
      vertex -2.002646638e-01 -1.839125550e-01 -4.213944146e-02
      vertex -2.540227712e-01 -9.959134843e-02 -4.213944146e-02
    endloop
  endfacet
  facet normal 5.375810743e-01 -8.432120662e-01 2.428161115e-16
    outer loop
      vertex -1.878028939e-01 -1.759676834e-01 -4.470523655e-02
      vertex -1.820335355e-01 -1.722894890e-01 -5.294763447e-03
      vertex -1.944953054e-01 -1.802343607e-01 -2.728968353e-03
    endloop
  endfacet
  facet normal 5.375810743e-01 -8.432120662e-01 2.371692252e-16
    outer loop
      vertex -1.878028939e-01 -1.759676834e-01 -4.470523655e-02
      vertex -1.944953054e-01 -1.802343607e-01 -2.728968353e-03
      vertex -2.002646638e-01 -1.839125550e-01 -4.213944146e-02
    endloop
  endfacet
  facet normal 1.442339588e-01 9.195485887e-02 9.852618277e-01
    outer loop
      vertex -1.820335355e-01 -1.722894890e-01 -5.294763447e-03
      vertex -2.357916429e-01 -8.796828240e-02 -5.294763447e-03
      vertex -2.482534129e-01 -9.591315407e-02 -2.728968353e-03
    endloop
  endfacet
  facet normal 1.442339588e-01 9.195485887e-02 9.852618277e-01
    outer loop
      vertex -1.820335355e-01 -1.722894890e-01 -5.294763447e-03
      vertex -2.482534129e-01 -9.591315407e-02 -2.728968353e-03
      vertex -1.944953054e-01 -1.802343607e-01 -2.728968353e-03
    endloop
  endfacet
  facet normal -5.375810743e-01 8.432120662e-01 -1.129377263e-16
    outer loop
      vertex -2.357916429e-01 -8.796828240e-02 -5.294763447e-03
      vertex -2.415610013e-01 -9.164647675e-02 -4.470523655e-02
      vertex -2.540227712e-01 -9.959134843e-02 -4.213944146e-02
    endloop
  endfacet
  facet normal -5.375810743e-01 8.432120662e-01 -9.035018104e-17
    outer loop
      vertex -2.357916429e-01 -8.796828240e-02 -5.294763447e-03
      vertex -2.540227712e-01 -9.959134843e-02 -4.213944146e-02
      vertex -2.482534129e-01 -9.591315407e-02 -2.728968353e-03
    endloop
  endfacet
  facet normal 3.797383349e-16 -9.848077530e-01 1.736481777e-01
    outer loop
      vertex -1.365461170e-01 -2.580754209e-01 -5.000000000e-02
      vertex -5.000000000e-02 -2.571402100e-01 -4.469615506e-02
      vertex -5.000000000e-02 -2.501942828e-01 -5.303844940e-03
    endloop
  endfacet
  facet normal 0.000000000e+00 -9.848077530e-01 1.736481777e-01
    outer loop
      vertex 5.000000000e-02 -2.571402100e-01 -4.469615506e-02
      vertex -5.000000000e-02 -2.571402100e-01 -4.469615506e-02
      vertex -1.365461170e-01 -2.580754209e-01 -5.000000000e-02
    endloop
  endfacet
  facet normal -3.402768780e-16 -9.848077530e-01 1.736481777e-01
    outer loop
      vertex -1.318722229e-01 -2.492590719e-01 0.000000000e+00
      vertex -1.365461170e-01 -2.580754209e-01 -5.000000000e-02
      vertex -5.000000000e-02 -2.501942828e-01 -5.303844940e-03
    endloop
  endfacet
  facet normal 4.607247898e-18 -9.848077530e-01 1.736481777e-01
    outer loop
      vertex 5.000000000e-02 -2.571402100e-01 -4.469615506e-02
      vertex -1.365461170e-01 -2.580754209e-01 -5.000000000e-02
      vertex 1.365461170e-01 -2.580754209e-01 -5.000000000e-02
    endloop
  endfacet
  facet normal 2.284268543e-18 -9.848077530e-01 1.736481777e-01
    outer loop
      vertex 1.318722229e-01 -2.492590719e-01 -3.469446952e-18
      vertex -1.318722229e-01 -2.492590719e-01 0.000000000e+00
      vertex -5.000000000e-02 -2.501942828e-01 -5.303844940e-03
    endloop
  endfacet
  facet normal -3.758235067e-16 -9.848077530e-01 1.736481777e-01
    outer loop
      vertex 5.000000000e-02 -2.501942828e-01 -5.303844940e-03
      vertex 5.000000000e-02 -2.571402100e-01 -4.469615506e-02
      vertex 1.365461170e-01 -2.580754209e-01 -5.000000000e-02
    endloop
  endfacet
  facet normal 0.000000000e+00 -9.848077530e-01 1.736481777e-01
    outer loop
      vertex 1.318722229e-01 -2.492590719e-01 -3.469446952e-18
      vertex -5.000000000e-02 -2.501942828e-01 -5.303844940e-03
      vertex 5.000000000e-02 -2.501942828e-01 -5.303844940e-03
    endloop
  endfacet
  facet normal 3.483787084e-16 -9.848077530e-01 1.736481777e-01
    outer loop
      vertex 5.000000000e-02 -2.501942828e-01 -5.303844940e-03
      vertex 1.365461170e-01 -2.580754209e-01 -5.000000000e-02
      vertex 1.318722229e-01 -2.492590719e-01 -3.469446952e-18
    endloop
  endfacet
  facet normal 0.000000000e+00 -9.848077530e-01 1.736481777e-01
    outer loop
      vertex -5.000000000e-02 -2.719123263e-01 -4.209143240e-02
      vertex 5.000000000e-02 -2.719123263e-01 -4.209143240e-02
      vertex 5.000000000e-02 -2.649663991e-01 -2.699122275e-03
    endloop
  endfacet
  facet normal 0.000000000e+00 -9.848077530e-01 1.736481777e-01
    outer loop
      vertex -5.000000000e-02 -2.719123263e-01 -4.209143240e-02
      vertex 5.000000000e-02 -2.649663991e-01 -2.699122275e-03
      vertex -5.000000000e-02 -2.649663991e-01 -2.699122275e-03
    endloop
  endfacet
  facet normal 0.000000000e+00 -1.736481777e-01 -9.848077530e-01
    outer loop
      vertex -5.000000000e-02 -2.571402100e-01 -4.469615506e-02
      vertex 5.000000000e-02 -2.571402100e-01 -4.469615506e-02
      vertex 5.000000000e-02 -2.719123263e-01 -4.209143240e-02
    endloop
  endfacet
  facet normal 0.000000000e+00 -1.736481777e-01 -9.848077530e-01
    outer loop
      vertex -5.000000000e-02 -2.571402100e-01 -4.469615506e-02
      vertex 5.000000000e-02 -2.719123263e-01 -4.209143240e-02
      vertex -5.000000000e-02 -2.719123263e-01 -4.209143240e-02
    endloop
  endfacet
  facet normal 1.000000000e+00 0.000000000e+00 -0.000000000e+00
    outer loop
      vertex 5.000000000e-02 -2.571402100e-01 -4.469615506e-02
      vertex 5.000000000e-02 -2.501942828e-01 -5.303844940e-03
      vertex 5.000000000e-02 -2.649663991e-01 -2.699122275e-03
    endloop
  endfacet
  facet normal 1.000000000e+00 0.000000000e+00 0.000000000e+00
    outer loop
      vertex 5.000000000e-02 -2.571402100e-01 -4.469615506e-02
      vertex 5.000000000e-02 -2.649663991e-01 -2.699122275e-03
      vertex 5.000000000e-02 -2.719123263e-01 -4.209143240e-02
    endloop
  endfacet
  facet normal 0.000000000e+00 1.736481777e-01 9.848077530e-01
    outer loop
      vertex 5.000000000e-02 -2.501942828e-01 -5.303844940e-03
      vertex -5.000000000e-02 -2.501942828e-01 -5.303844940e-03
      vertex -5.000000000e-02 -2.649663991e-01 -2.699122275e-03
    endloop
  endfacet
  facet normal 0.000000000e+00 1.736481777e-01 9.848077530e-01
    outer loop
      vertex 5.000000000e-02 -2.501942828e-01 -5.303844940e-03
      vertex -5.000000000e-02 -2.649663991e-01 -2.699122275e-03
      vertex 5.000000000e-02 -2.649663991e-01 -2.699122275e-03
    endloop
  endfacet
  facet normal -1.000000000e+00 0.000000000e+00 0.000000000e+00
    outer loop
      vertex -5.000000000e-02 -2.501942828e-01 -5.303844940e-03
      vertex -5.000000000e-02 -2.571402100e-01 -4.469615506e-02
      vertex -5.000000000e-02 -2.719123263e-01 -4.209143240e-02
    endloop
  endfacet
  facet normal -1.000000000e+00 -0.000000000e+00 0.000000000e+00
    outer loop
      vertex -5.000000000e-02 -2.501942828e-01 -5.303844940e-03
      vertex -5.000000000e-02 -2.719123263e-01 -4.209143240e-02
      vertex -5.000000000e-02 -2.649663991e-01 -2.699122275e-03
    endloop
  endfacet
  facet normal -1.389749014e-16 9.848077530e-01 1.736481777e-01
    outer loop
      vertex 1.487367763e-01 2.580754209e-01 -5.000000000e-02
      vertex 5.000000000e-02 2.571402100e-01 -4.469615506e-02
      vertex 5.000000000e-02 2.501942828e-01 -5.303844940e-03
    endloop
  endfacet
  facet normal -0.000000000e+00 9.848077530e-01 1.736481777e-01
    outer loop
      vertex -5.000000000e-02 2.571402100e-01 -4.469615506e-02
      vertex 5.000000000e-02 2.571402100e-01 -4.469615506e-02
      vertex 1.487367763e-01 2.580754209e-01 -5.000000000e-02
    endloop
  endfacet
  facet normal 1.034440438e-16 9.848077530e-01 1.736481777e-01
    outer loop
      vertex 1.436466548e-01 2.492590719e-01 7.015568682e-13
      vertex 1.487367763e-01 2.580754209e-01 -5.000000000e-02
      vertex 5.000000000e-02 2.501942828e-01 -5.303844940e-03
    endloop
  endfacet
  facet normal 0.000000000e+00 9.848077530e-01 1.736481777e-01
    outer loop
      vertex -5.000000000e-02 2.571402100e-01 -4.469615506e-02
      vertex 1.487367763e-01 2.580754209e-01 -5.000000000e-02
      vertex -1.487367763e-01 2.580754209e-01 -5.000000000e-02
    endloop
  endfacet
  facet normal -2.097031572e-18 9.848077530e-01 1.736481777e-01
    outer loop
      vertex -1.436466548e-01 2.492590719e-01 7.015533987e-13
      vertex 1.436466548e-01 2.492590719e-01 7.015568682e-13
      vertex 5.000000000e-02 2.501942828e-01 -5.303844940e-03
    endloop
  endfacet
  facet normal 1.372591618e-16 9.848077530e-01 1.736481777e-01
    outer loop
      vertex -5.000000000e-02 2.501942828e-01 -5.303844940e-03
      vertex -5.000000000e-02 2.571402100e-01 -4.469615506e-02
      vertex -1.487367763e-01 2.580754209e-01 -5.000000000e-02
    endloop
  endfacet
  facet normal 0.000000000e+00 9.848077530e-01 1.736481777e-01
    outer loop
      vertex -1.436466548e-01 2.492590719e-01 7.015533987e-13
      vertex 5.000000000e-02 2.501942828e-01 -5.303844940e-03
      vertex -5.000000000e-02 2.501942828e-01 -5.303844940e-03
    endloop
  endfacet
  facet normal -1.091122106e-16 9.848077530e-01 1.736481777e-01
    outer loop
      vertex -5.000000000e-02 2.501942828e-01 -5.303844940e-03
      vertex -1.487367763e-01 2.580754209e-01 -5.000000000e-02
      vertex -1.436466548e-01 2.492590719e-01 7.015533987e-13
    endloop
  endfacet
  facet normal 0.000000000e+00 9.848077530e-01 1.736481777e-01
    outer loop
      vertex 5.000000000e-02 2.719123262e-01 -4.209143240e-02
      vertex -5.000000000e-02 2.719123262e-01 -4.209143240e-02
      vertex -5.000000000e-02 2.649663991e-01 -2.699122275e-03
    endloop
  endfacet
  facet normal 0.000000000e+00 9.848077530e-01 1.736481777e-01
    outer loop
      vertex 5.000000000e-02 2.719123262e-01 -4.209143240e-02
      vertex -5.000000000e-02 2.649663991e-01 -2.699122275e-03
      vertex 5.000000000e-02 2.649663991e-01 -2.699122275e-03
    endloop
  endfacet
  facet normal 0.000000000e+00 1.736481777e-01 -9.848077530e-01
    outer loop
      vertex 5.000000000e-02 2.571402100e-01 -4.469615506e-02
      vertex -5.000000000e-02 2.571402100e-01 -4.469615506e-02
      vertex -5.000000000e-02 2.719123262e-01 -4.209143240e-02
    endloop
  endfacet
  facet normal 0.000000000e+00 1.736481777e-01 -9.848077530e-01
    outer loop
      vertex 5.000000000e-02 2.571402100e-01 -4.469615506e-02
      vertex -5.000000000e-02 2.719123262e-01 -4.209143240e-02
      vertex 5.000000000e-02 2.719123262e-01 -4.209143240e-02
    endloop
  endfacet
  facet normal -1.000000000e+00 0.000000000e+00 0.000000000e+00
    outer loop
      vertex -5.000000000e-02 2.571402100e-01 -4.469615506e-02
      vertex -5.000000000e-02 2.501942828e-01 -5.303844940e-03
      vertex -5.000000000e-02 2.649663991e-01 -2.699122275e-03
    endloop
  endfacet
  facet normal -1.000000000e+00 0.000000000e+00 0.000000000e+00
    outer loop
      vertex -5.000000000e-02 2.571402100e-01 -4.469615506e-02
      vertex -5.000000000e-02 2.649663991e-01 -2.699122275e-03
      vertex -5.000000000e-02 2.719123262e-01 -4.209143240e-02
    endloop
  endfacet
  facet normal 0.000000000e+00 -1.736481777e-01 9.848077530e-01
    outer loop
      vertex -5.000000000e-02 2.501942828e-01 -5.303844940e-03
      vertex 5.000000000e-02 2.501942828e-01 -5.303844940e-03
      vertex 5.000000000e-02 2.649663991e-01 -2.699122275e-03
    endloop
  endfacet
  facet normal 0.000000000e+00 -1.736481777e-01 9.848077530e-01
    outer loop
      vertex -5.000000000e-02 2.501942828e-01 -5.303844940e-03
      vertex 5.000000000e-02 2.649663991e-01 -2.699122275e-03
      vertex -5.000000000e-02 2.649663991e-01 -2.699122275e-03
    endloop
  endfacet
  facet normal 1.000000000e+00 0.000000000e+00 0.000000000e+00
    outer loop
      vertex 5.000000000e-02 2.501942828e-01 -5.303844940e-03
      vertex 5.000000000e-02 2.571402100e-01 -4.469615506e-02
      vertex 5.000000000e-02 2.719123262e-01 -4.209143240e-02
    endloop
  endfacet
  facet normal 1.000000000e+00 -0.000000000e+00 0.000000000e+00
    outer loop
      vertex 5.000000000e-02 2.501942828e-01 -5.303844940e-03
      vertex 5.000000000e-02 2.719123262e-01 -4.209143240e-02
      vertex 5.000000000e-02 2.649663991e-01 -2.699122275e-03
    endloop
  endfacet
  facet normal 8.660254038e-01 4.698463104e-01 1.710100717e-01
    outer loop
      vertex 2.944188694e-01 -1.044726559e-02 -5.000000000e-02
      vertex 2.446383551e-01 7.938159261e-02 -4.470538561e-02
      vertex 2.386258236e-01 7.611960311e-02 -5.294614387e-03
    endloop
  endfacet
  facet normal 8.660254038e-01 4.698463104e-01 1.710100717e-01
    outer loop
      vertex 1.969512589e-01 1.672789239e-01 -4.470538561e-02
      vertex 2.446383551e-01 7.938159261e-02 -4.470538561e-02
      vertex 2.944188694e-01 -1.044726559e-02 -5.000000000e-02
    endloop
  endfacet
  facet normal 8.660254038e-01 4.698463104e-01 1.710100717e-01
    outer loop
      vertex 2.843518643e-01 -1.009017315e-02 -1.004286931e-12
      vertex 2.944188694e-01 -1.044726559e-02 -5.000000000e-02
      vertex 2.386258236e-01 7.611960311e-02 -5.294614387e-03
    endloop
  endfacet
  facet normal 8.660254038e-01 4.698463104e-01 1.710100717e-01
    outer loop
      vertex 1.969512589e-01 1.672789239e-01 -4.470538561e-02
      vertex 2.944188694e-01 -1.044726559e-02 -5.000000000e-02
      vertex 1.487367763e-01 2.580754209e-01 -5.000000000e-02
    endloop
  endfacet
  facet normal 8.660254038e-01 4.698463104e-01 1.710100717e-01
    outer loop
      vertex 1.436466548e-01 2.492590719e-01 -1.004269584e-12
      vertex 2.843518643e-01 -1.009017315e-02 -1.004286931e-12
      vertex 2.386258236e-01 7.611960311e-02 -5.294614387e-03
    endloop
  endfacet
  facet normal 8.660254038e-01 4.698463104e-01 1.710100717e-01
    outer loop
      vertex 1.909387273e-01 1.640169344e-01 -5.294614387e-03
      vertex 1.969512589e-01 1.672789239e-01 -4.470538561e-02
      vertex 1.487367763e-01 2.580754209e-01 -5.000000000e-02
    endloop
  endfacet
  facet normal 8.660254038e-01 4.698463104e-01 1.710100717e-01
    outer loop
      vertex 1.436466548e-01 2.492590719e-01 -1.004269584e-12
      vertex 2.386258236e-01 7.611960311e-02 -5.294614387e-03
      vertex 1.909387273e-01 1.640169344e-01 -5.294614387e-03
    endloop
  endfacet
  facet normal 8.660254038e-01 4.698463104e-01 1.710100717e-01
    outer loop
      vertex 1.909387273e-01 1.640169344e-01 -5.294614387e-03
      vertex 1.487367763e-01 2.580754209e-01 -5.000000000e-02
      vertex 1.436466548e-01 2.492590719e-01 -1.004269584e-12
    endloop
  endfacet
  facet normal 8.660254038e-01 4.698463104e-01 1.710100717e-01
    outer loop
      vertex 2.576287362e-01 8.642928727e-02 -4.214023454e-02
      vertex 2.099416399e-01 1.743266186e-01 -4.214023454e-02
      vertex 2.039291083e-01 1.710646291e-01 -2.729463312e-03
    endloop
  endfacet
  facet normal 8.660254038e-01 4.698463104e-01 1.710100717e-01
    outer loop
      vertex 2.576287362e-01 8.642928727e-02 -4.214023454e-02
      vertex 2.039291083e-01 1.710646291e-01 -2.729463312e-03
      vertex 2.516162046e-01 8.316729777e-02 -2.729463312e-03
    endloop
  endfacet
  facet normal 1.503132892e-01 8.154973751e-02 -9.852692806e-01
    outer loop
      vertex 2.446383551e-01 7.938159261e-02 -4.470538561e-02
      vertex 1.969512589e-01 1.672789239e-01 -4.470538561e-02
      vertex 2.099416399e-01 1.743266186e-01 -4.214023454e-02
    endloop
  endfacet
  facet normal 1.503132892e-01 8.154973751e-02 -9.852692806e-01
    outer loop
      vertex 2.446383551e-01 7.938159261e-02 -4.470538561e-02
      vertex 2.099416399e-01 1.743266186e-01 -4.214023454e-02
      vertex 2.576287362e-01 8.642928727e-02 -4.214023454e-02
    endloop
  endfacet
  facet normal -4.768709627e-01 8.789733130e-01 -2.484629979e-16
    outer loop
      vertex 1.969512589e-01 1.672789239e-01 -4.470538561e-02
      vertex 1.909387273e-01 1.640169344e-01 -5.294614387e-03
      vertex 2.039291083e-01 1.710646291e-01 -2.729463312e-03
    endloop
  endfacet
  facet normal -4.768709627e-01 8.789733130e-01 -2.484629979e-16
    outer loop
      vertex 1.969512589e-01 1.672789239e-01 -4.470538561e-02
      vertex 2.039291083e-01 1.710646291e-01 -2.729463312e-03
      vertex 2.099416399e-01 1.743266186e-01 -4.214023454e-02
    endloop
  endfacet
  facet normal -1.503132892e-01 -8.154973751e-02 9.852692806e-01
    outer loop
      vertex 1.909387273e-01 1.640169344e-01 -5.294614387e-03
      vertex 2.386258236e-01 7.611960311e-02 -5.294614387e-03
      vertex 2.516162046e-01 8.316729777e-02 -2.729463312e-03
    endloop
  endfacet
  facet normal -1.503132892e-01 -8.154973751e-02 9.852692806e-01
    outer loop
      vertex 1.909387273e-01 1.640169344e-01 -5.294614387e-03
      vertex 2.516162046e-01 8.316729777e-02 -2.729463312e-03
      vertex 2.039291083e-01 1.710646291e-01 -2.729463312e-03
    endloop
  endfacet
  facet normal 4.768709627e-01 -8.789733130e-01 5.195135410e-16
    outer loop
      vertex 2.386258236e-01 7.611960311e-02 -5.294614387e-03
      vertex 2.446383551e-01 7.938159261e-02 -4.470538561e-02
      vertex 2.576287362e-01 8.642928727e-02 -4.214023454e-02
    endloop
  endfacet
  facet normal 4.768709627e-01 -8.789733130e-01 5.421010862e-16
    outer loop
      vertex 2.386258236e-01 7.611960311e-02 -5.294614387e-03
      vertex 2.576287362e-01 8.642928727e-02 -4.214023454e-02
      vertex 2.516162046e-01 8.316729777e-02 -2.729463312e-03
    endloop
  endfacet
endsolid len_ring1
