# len_ring1  (local coords; bottom=gold toward O, bulge=dark, other=grey)
mtllib len_ring1.mtl
o len_ring1
v 2.944188694e-01 -1.044726559e-02 -5.000000000e-02
v 1.365461170e-01 -2.580754209e-01 -5.000000000e-02
v -1.365461170e-01 -2.580754209e-01 -5.000000000e-02
v 2.843518643e-01 -1.009017315e-02 3.104942826e-17
v -1.318722229e-01 -2.492590719e-01 1.560101365e-18
v 1.318722229e-01 -2.492590719e-01 1.560101365e-18
v -2.944188694e-01 -1.044726558e-02 -5.000000000e-02
v -2.843518643e-01 -1.009017315e-02 3.882926342e-19
v -1.487367763e-01 2.580754209e-01 -5.000000000e-02
v -1.436466548e-01 2.492590719e-01 5.482277709e-17
v 1.487367763e-01 2.580754209e-01 -5.000000000e-02
v 1.436466548e-01 2.492590719e-01 5.482277709e-17
v -1.969512589e-01 1.672789239e-01 -4.470538561e-02
v -1.909387273e-01 1.640169344e-01 -5.294614387e-03
v -2.446383551e-01 7.938159262e-02 -4.470538561e-02
v -2.386258236e-01 7.611960312e-02 -5.294614387e-03
v -2.099416399e-01 1.743266186e-01 -4.214023454e-02
v -2.576287362e-01 8.642928727e-02 -4.214023454e-02
v -2.516162046e-01 8.316729777e-02 -2.729463312e-03
v -2.039291084e-01 1.710646291e-01 -2.729463312e-03
v 1.878028939e-01 -1.759676834e-01 -4.470523655e-02
v 1.820335355e-01 -1.722894890e-01 -5.294763447e-03
v 2.415610013e-01 -9.164647676e-02 -4.470523655e-02
v 2.357916429e-01 -8.796828240e-02 -5.294763447e-03
v 2.002646638e-01 -1.839125550e-01 -4.213944146e-02
v 2.540227712e-01 -9.959134843e-02 -4.213944146e-02
v 2.482534129e-01 -9.591315408e-02 -2.728968353e-03
v 1.944953054e-01 -1.802343607e-01 -2.728968353e-03
v -2.415610013e-01 -9.164647675e-02 -4.470523655e-02
v -2.357916429e-01 -8.796828240e-02 -5.294763447e-03
v -1.878028939e-01 -1.759676834e-01 -4.470523655e-02
v -1.820335355e-01 -1.722894890e-01 -5.294763447e-03
v -2.540227712e-01 -9.959134843e-02 -4.213944146e-02
v -2.002646638e-01 -1.839125550e-01 -4.213944146e-02
v -1.944953054e-01 -1.802343607e-01 -2.728968353e-03
v -2.482534129e-01 -9.591315407e-02 -2.728968353e-03
v -5.000000000e-02 -2.571402100e-01 -4.469615506e-02
v -5.000000000e-02 -2.501942828e-01 -5.303844940e-03
v 5.000000000e-02 -2.571402100e-01 -4.469615506e-02
v 5.000000000e-02 -2.501942828e-01 -5.303844940e-03
v -5.000000000e-02 -2.719123263e-01 -4.209143240e-02
v 5.000000000e-02 -2.719123263e-01 -4.209143240e-02
v 5.000000000e-02 -2.649663991e-01 -2.699122275e-03
v -5.000000000e-02 -2.649663991e-01 -2.699122275e-03
v 5.000000000e-02 2.571402100e-01 -4.469615506e-02
v 5.000000000e-02 2.501942828e-01 -5.303844940e-03
v -5.000000000e-02 2.571402100e-01 -4.469615506e-02
v -5.000000000e-02 2.501942828e-01 -5.303844940e-03
v 5.000000000e-02 2.719123262e-01 -4.209143240e-02
v -5.000000000e-02 2.719123262e-01 -4.209143240e-02
v -5.000000000e-02 2.649663991e-01 -2.699122275e-03
v 5.000000000e-02 2.649663991e-01 -2.699122275e-03
v 2.446383551e-01 7.938159261e-02 -4.470538561e-02
v 2.386258236e-01 7.611960311e-02 -5.294614387e-03
v 1.969512589e-01 1.672789239e-01 -4.470538561e-02
v 1.909387273e-01 1.640169344e-01 -5.294614387e-03
v 2.576287362e-01 8.642928727e-02 -4.214023454e-02
v 2.099416399e-01 1.743266186e-01 -4.214023454e-02
v 2.039291083e-01 1.710646291e-01 -2.729463312e-03
v 2.516162046e-01 8.316729777e-02 -2.729463312e-03
usemtl mat_bottom
f 4 5 6
f 4 8 5
f 4 10 8
f 4 12 10
usemtl mat_bulge
f 17 18 19
f 17 19 20
f 13 15 18
f 13 18 17
f 15 16 19
f 15 19 18
f 16 14 20
f 16 20 19
f 14 13 17
f 14 17 20
f 25 26 27
f 25 27 28
f 21 23 26
f 21 26 25
f 23 24 27
f 23 27 26
f 24 22 28
f 24 28 27
f 22 21 25
f 22 25 28
f 33 34 35
f 33 35 36
f 29 31 34
f 29 34 33
f 31 32 35
f 31 35 34
f 32 30 36
f 32 36 35
f 30 29 33
f 30 33 36
f 41 42 43
f 41 43 44
f 37 39 42
f 37 42 41
f 39 40 43
f 39 43 42
f 40 38 44
f 40 44 43
f 38 37 41
f 38 41 44
f 49 50 51
f 49 51 52
f 45 47 50
f 45 50 49
f 47 48 51
f 47 51 50
f 48 46 52
f 48 52 51
f 46 45 49
f 46 49 52
f 57 58 59
f 57 59 60
f 53 55 58
f 53 58 57
f 55 56 59
f 55 59 58
f 56 54 60
f 56 60 59
f 54 53 57
f 54 57 60
usemtl mat_other
f 1 2 3
f 1 3 7
f 1 7 9
f 1 9 11
f 9 13 14
f 15 13 9
f 10 9 14
f 15 9 7
f 8 10 14
f 16 15 7
f 8 14 16
f 16 7 8
f 2 21 22
f 23 21 2
f 6 2 22
f 23 2 1
f 4 6 22
f 24 23 1
f 4 22 24
f 24 1 4
f 7 29 30
f 31 29 7
f 8 7 30
f 31 7 3
f 5 8 30
f 32 31 3
f 5 30 32
f 32 3 5
f 3 37 38
f 39 37 3
f 5 3 38
f 39 3 2
f 6 5 38
f 40 39 2
f 6 38 40
f 40 2 6
f 11 45 46
f 47 45 11
f 12 11 46
f 47 11 9
f 10 12 46
f 48 47 9
f 10 46 48
f 48 9 10
f 1 53 54
f 55 53 1
f 4 1 54
f 55 1 11
f 12 4 54
f 56 55 11
f 12 54 56
f 56 11 12
