solid len_ring1
  facet normal -9.889426088e-32 2.625176312e-16 1.000000000e+00
    outer loop
      vertex 2.826466773e-01 1.003219909e-02 5.000000000e-02
      vertex 1.309830502e-01 2.479211548e-01 5.000000000e-02
      vertex -1.309830502e-01 2.479211548e-01 5.000000000e-02
    endloop
  endfacet
  facet normal 2.658373555e-32 -1.606717614e-16 -1.000000000e+00
    outer loop
      vertex 2.725796722e-01 9.675106665e-03 1.062518129e-16
      vertex -1.263091561e-01 2.391048058e-01 6.938893904e-17
      vertex 1.263091561e-01 2.391048058e-01 6.938893904e-17
    endloop
  endfacet
  facet normal 1.227485490e-17 2.838605509e-16 1.000000000e+00
    outer loop
      vertex 2.826466773e-01 1.003219909e-02 5.000000000e-02
      vertex -1.309830502e-01 2.479211548e-01 5.000000000e-02
      vertex -2.826466773e-01 1.003219909e-02 5.000000000e-02
    endloop
  endfacet
  facet normal 6.125443370e-17 -5.417417463e-17 -1.000000000e+00
    outer loop
      vertex 2.725796722e-01 9.675106665e-03 1.062518129e-16
      vertex -2.725796722e-01 9.675106665e-03 7.285838599e-17
      vertex -1.263091561e-01 2.391048058e-01 6.938893904e-17
    endloop
  endfacet
  facet normal 1.227485490e-17 -4.714010316e-17 1.000000000e+00
    outer loop
      vertex 2.826466773e-01 1.003219909e-02 5.000000000e-02
      vertex -2.826466773e-01 1.003219909e-02 5.000000000e-02
      vertex -1.426987831e-01 -2.479211548e-01 5.000000000e-02
    endloop
  endfacet
  facet normal 6.125443370e-17 2.145285070e-16 -1.000000000e+00
    outer loop
      vertex 2.725796722e-01 9.675106665e-03 1.062518129e-16
      vertex -1.376086616e-01 -2.391048058e-01 2.775557562e-17
      vertex -2.725796722e-01 9.675106665e-03 7.285838599e-17
    endloop
  endfacet
  facet normal 5.232136157e-33 -2.689980107e-17 1.000000000e+00
    outer loop
      vertex 2.826466773e-01 1.003219909e-02 5.000000000e-02
      vertex -1.426987831e-01 -2.479211548e-01 5.000000000e-02
      vertex 1.426987831e-01 -2.479211548e-01 5.000000000e-02
    endloop
  endfacet
  facet normal -4.500589382e-32 3.155248208e-16 -1.000000000e+00
    outer loop
      vertex 2.725796722e-01 9.675106665e-03 1.062518129e-16
      vertex 1.376086616e-01 -2.391048058e-01 2.775557562e-17
      vertex -1.376086616e-01 -2.391048058e-01 2.775557562e-17
    endloop
  endfacet
  facet normal -8.660254038e-01 -4.698463104e-01 -1.710100718e-01
    outer loop
      vertex -2.826466773e-01 1.003219909e-02 5.000000000e-02
      vertex -1.376086616e-01 -2.391048058e-01 2.775557562e-17
      vertex -1.426987831e-01 -2.479211548e-01 5.000000000e-02
    endloop
  endfacet
  facet normal -8.660254038e-01 -4.698463104e-01 -1.710100718e-01
    outer loop
      vertex -2.826466773e-01 1.003219909e-02 5.000000000e-02
      vertex -2.725796722e-01 9.675106665e-03 7.285838599e-17
      vertex -1.376086616e-01 -2.391048058e-01 2.775557562e-17
    endloop
  endfacet
  facet normal 8.307846614e-01 5.296581118e-01 -1.710530063e-01
    outer loop
      vertex 2.826466773e-01 1.003219909e-02 5.000000000e-02
      vertex 1.263091561e-01 2.391048058e-01 6.938893904e-17
      vertex 1.309830502e-01 2.479211548e-01 5.000000000e-02
    endloop
  endfacet
  facet normal 8.307846614e-01 5.296581118e-01 -1.710530063e-01
    outer loop
      vertex 2.826466773e-01 1.003219909e-02 5.000000000e-02
      vertex 2.725796722e-01 9.675106665e-03 1.062518129e-16
      vertex 1.263091561e-01 2.391048058e-01 6.938893904e-17
    endloop
  endfacet
  facet normal -8.307846614e-01 5.296581118e-01 -1.710530063e-01
    outer loop
      vertex -1.309830502e-01 2.479211548e-01 5.000000000e-02
      vertex -2.725796722e-01 9.675106665e-03 7.285838599e-17
      vertex -2.826466773e-01 1.003219909e-02 5.000000000e-02
    endloop
  endfacet
  facet normal -8.307846614e-01 5.296581118e-01 -1.710530063e-01
    outer loop
      vertex -1.309830502e-01 2.479211548e-01 5.000000000e-02
      vertex -1.263091561e-01 2.391048058e-01 6.938893904e-17
      vertex -2.725796722e-01 9.675106665e-03 7.285838599e-17
    endloop
  endfacet
  facet normal -2.086827725e-16 9.848077530e-01 -1.736481777e-01
    outer loop
      vertex 1.309830502e-01 2.479211548e-01 5.000000000e-02
      vertex -1.263091561e-01 2.391048058e-01 6.938893904e-17
      vertex -1.309830502e-01 2.479211548e-01 5.000000000e-02
    endloop
  endfacet
  facet normal -2.155594561e-16 9.848077530e-01 -1.736481777e-01
    outer loop
      vertex 1.309830502e-01 2.479211548e-01 5.000000000e-02
      vertex 1.263091561e-01 2.391048058e-01 6.938893904e-17
      vertex -1.263091561e-01 2.391048058e-01 6.938893904e-17
    endloop
  endfacet
  facet normal 1.915496787e-16 -9.848077530e-01 -1.736481775e-01
    outer loop
      vertex -1.426987831e-01 -2.479211548e-01 5.000000000e-02
      vertex 1.376086616e-01 -2.391048058e-01 2.775557562e-17
      vertex 1.426987831e-01 -2.479211548e-01 5.000000000e-02
    endloop
  endfacet
  facet normal 1.978591513e-16 -9.848077530e-01 -1.736481775e-01
    outer loop
      vertex -1.426987831e-01 -2.479211548e-01 5.000000000e-02
      vertex -1.376086616e-01 -2.391048058e-01 2.775557562e-17
      vertex 1.376086616e-01 -2.391048058e-01 2.775557562e-17
    endloop
  endfacet
  facet normal 8.660254038e-01 -4.698463104e-01 -1.710100718e-01
    outer loop
      vertex 1.426987831e-01 -2.479211548e-01 5.000000000e-02
      vertex 2.725796722e-01 9.675106665e-03 1.062518129e-16
      vertex 2.826466773e-01 1.003219909e-02 5.000000000e-02
    endloop
  endfacet
  facet normal 8.660254038e-01 -4.698463104e-01 -1.710100718e-01
    outer loop
      vertex 1.426987831e-01 -2.479211548e-01 5.000000000e-02
      vertex 1.376086616e-01 -2.391048058e-01 2.775557562e-17
      vertex 2.725796722e-01 9.675106665e-03 1.062518129e-16
    endloop
  endfacet
endsolid len_ring1
